PathFileType	4	(X/Y/Z)	Patient4_TMGait_0pt5_02_left_08.trc.trc
DataRate	CameraRate	NumFrames	NumMarkers	Units	OrigDataRate	OrigDataStartFrame	OrigNumFrames
78.212290502793	78.212290502793	5	33	mm	78.212290502793	124	       141
Frame#	Time	Sacral			L.Shoulder			Chest			R.Shoulder			Neck			R.ASIS			L.ASIS			R.Thigh.Superior			R.Thigh.Lateral			R.Thigh.Inferior			R.Patella			L.Thigh.Superior			L.Thigh.Lateral			L.Thigh.Inferior			L.Patella			L.Shank.Superior			L.Shank.Lateral			L.Shank.Inferior			R.Shank.Superior			R.Shank.Lateral			R.Shank.Inferior			R.Heel			R.Midfoot.Superior			R.Midfoot.Lateral			R.Toe			L.Heel			L.Midfoot.Lateral			L.Midfoot.Superior			L.Toe			L.Elbow			L.Wrist			R.Elbow			R.Wrist			
		X1	Y1	Z1	X2	Y2	Z2	X3	Y3	Z3	X4	Y4	Z4	X5	Y5	Z5	X6	Y6	Z6	X7	Y7	Z7	X8	Y8	Z8	X9	Y9	Z9	X10	Y10	Z10	X11	Y11	Z11	X12	Y12	Z12	X13	Y13	Z13	X14	Y14	Z14	X15	Y15	Z15	X16	Y16	Z16	X17	Y17	Z17	X18	Y18	Z18	X19	Y19	Z19	X20	Y20	Z20	X21	Y21	Z21	X22	Y22	Z22	X23	Y23	Z23	X24	Y24	Z24	X25	Y25	Z25	X26	Y26	Z26	X27	Y27	Z27	X28	Y28	Z28	X29	Y29	Z29	X30	Y30	Z30	X31	Y31	Z31	X32	Y32	Z32	X33	Y33	Z33	

124	11.392642857143	574.671566233141	1005.077872453955	532.962828050752	745.883746058616	1432.100038569549	349.043034230042	862.344866090225	1353.458052898882	495.613332874721	799.610201938064	1422.454874508901	680.851377397581	760.927922624459	1486.111959683966	503.020543696571	806.550258607016	933.003930260673	632.328085925613	774.374474485741	950.405924244191	358.998894206546	802.150366041714	720.986801176238	606.137496607009	698.532431824364	628.992776011155	669.840123288362	756.907487717358	562.277755910091	589.318510321368	736.832956075945	476.595928224580	592.621542140672	844.829578717754	762.882896811003	386.766747764499	786.791097064589	635.146333307520	314.330742430403	890.118534905678	575.076160323385	372.703198312389	914.686022284949	510.951949373879	371.427008811860	900.828117238564	439.310202312092	361.369395477869	837.264999315188	308.208680998030	311.468825497559	926.350008026254	211.642010458066	366.785729212318	697.868342881996	393.838586197689	599.973961198075	614.627003940516	300.520454991243	662.399728181754	641.215692233714	201.304164319454	598.235140715857	488.265154159595	44.503567721799	567.351330357573	659.965969109901	96.188969914866	604.760173144809	570.453074594212	36.234909039214	642.904991952319	778.847988186733	39.950482320229	635.130702972135	841.473178173586	38.270488847074	405.738467738953	915.543845499458	39.617255285662	325.452285732690	990.401046534202	111.121838109675	347.016278404820	1122.245215882054	74.045133939481	321.164343322332	617.589675816982	1102.222688775236	238.852054488878	625.824212225822	841.994607104489	212.779183642683	891.579490589861	1094.521147632677	794.359255315020	1130.670269241925	1124.738739075971	719.047653358529	
125	11.405428571429	576.009183441309	1003.534693953185	530.243055014061	745.575033398172	1430.564518079886	345.600840174559	862.264951891046	1352.969931061938	492.589101547397	798.692248537766	1422.105421656379	677.553321908173	760.102137067526	1485.085410637618	499.433649587998	807.768620128716	932.066911027739	630.644554087276	776.583456790450	948.916578809940	357.320239900692	802.356277565743	719.606472311300	604.950087144947	697.729230116072	628.225889683992	668.398328356127	755.845299472731	561.054635252385	588.148750463326	734.936469455443	474.977502481372	591.303484825561	847.245827055019	761.251839899795	385.654791257804	788.225256707136	633.536324509034	313.794290207056	891.574047727121	573.695638701328	372.317319839172	914.965430138156	508.493147145214	371.602727434229	900.628603194297	436.451902593156	361.539968743087	835.184193805853	306.132642215847	311.931355259583	922.479112426046	208.399183281087	367.918460982578	694.982584851171	392.689670780701	598.887837261280	610.723051213696	300.387339233205	661.644452189792	636.079425280909	200.753893801249	597.699885837969	481.796469364526	44.685158961655	567.396635911449	653.561814928595	96.172000107384	604.627895846723	564.028257933237	36.290811368251	642.909476052400	772.468690025416	39.810617555174	635.190238033382	833.706489971990	37.601458173409	406.590800752015	907.998458338064	37.752245987321	326.389887397532	984.838547072631	106.857374103392	349.053114486205	1115.991498570373	66.144354430588	323.209619959393	617.067490498898	1100.640608759846	236.394425462676	624.794358145985	840.279955999078	211.099559166601	892.870677250729	1094.470412431373	790.320679006850	1129.945333497834	1129.581915876998	711.405589895545	
126	11.418214285714	577.289269822626	1002.130586577934	527.465144642347	745.357127943243	1429.077701897881	342.018723642871	862.243919703471	1352.571958856281	489.468523864022	797.856433275870	1421.986138385437	674.108324460813	759.400952639209	1484.197674840716	495.645503708611	808.898988063683	931.193090586552	628.851010017493	778.720750433573	947.647599354224	355.563952808544	802.912772668056	718.340525909898	603.614466666560	697.491285381637	627.385003249278	666.748978368202	755.516274386901	559.825361882008	586.777072251511	733.909294545435	473.182085601622	589.857877511765	849.645816692590	760.010068480221	384.584678815179	790.026051900270	632.518407000258	313.017286204421	893.250619980114	572.814484244479	371.905382590060	915.386355896402	506.489394417680	371.668165189529	900.642004942602	434.065938349237	361.456600354017	833.490436749063	304.561372111072	311.899652796863	918.877839926443	205.689613746904	368.723826218651	692.755899887533	391.428737014060	597.668012305686	607.291991425001	300.329776645213	660.763464529541	631.237214236756	200.239335776407	597.108599915381	475.355868128135	45.146831964143	567.454463999338	647.286124804550	96.217153269326	604.501751462695	557.648933575245	36.498934782385	642.914454843292	766.152419425195	39.614288469096	635.257283078947	826.327697379484	37.170317900054	407.072645327251	900.868064705632	36.365834824523	326.998105920239	979.370861248993	103.380831420300	350.760399523593	1109.920386797046	59.581641831842	325.030870806872	617.190053272982	1098.840181399822	233.744932009235	624.467518133464	838.370627189022	209.196637153002	893.973483322048	1094.658560167631	786.480359871075	1129.153976184536	1133.529297565653	704.100191129119	
127	11.431000000000	578.471048685598	1000.958073366843	524.671063929889	745.214621465464	1427.722797225458	338.342894904472	862.277792507401	1352.306768257520	486.264144869565	797.169202893082	1422.155770381580	670.539824918885	758.849491298157	1483.515918989980	491.702269755980	809.900675306635	930.463419018450	626.925964697201	780.698837846808	946.679858306710	353.686772243171	803.783531082349	717.268487687703	602.092299148695	697.848461621712	626.517895602567	664.902576687902	755.973857830372	558.641899777854	585.215436350873	733.860440006278	471.239057667417	588.359418795217	851.996689269311	759.300343177183	383.503664017042	792.161473201467	632.146868297772	312.002585926070	895.125354711806	572.479677671278	371.384862261401	915.965765411125	505.009932026892	371.536067231359	900.844093341987	432.211629395898	361.106223814620	832.138939861621	303.554421489695	311.376058564709	915.504936695953	203.575975305239	369.184269355257	691.265026014422	390.101343683315	596.357968407405	604.384263213003	300.423031797659	659.775390078579	626.750138341047	199.833703357817	596.491775532680	468.976736198105	46.027222822836	567.525546461184	641.202878986150	96.354955444793	604.403360745797	551.337287180944	36.936879356535	642.917684236426	759.907141591249	39.356111824518	635.328852955258	819.393849994087	36.959710309006	407.248167121092	894.170752442609	35.443392578664	327.305071121681	973.965850223815	100.772398285499	352.062099858502	1104.021169796789	54.557431310165	326.499349047002	617.980177454577	1096.900951445384	230.919177709070	624.876759493171	836.345790609334	207.075492458084	894.813009418750	1095.120037883105	782.877067567606	1128.280133144557	1136.547207294976	697.170703588545	
128	11.443785714286	579.527289336786	1000.089410592127	521.883571470964	745.125595365102	1426.572470894520	334.618100055407	862.353969778388	1352.210741895838	482.991462565034	796.670714709256	1422.652713804306	666.874712108341	758.450361524406	1483.090680564114	487.657004370378	810.746371806552	929.951901096886	624.856973548194	782.462427049545	946.065782455149	351.650180669326	804.931187335153	716.462605051533	600.365896728714	698.818614035486	625.675390425653	662.887866912977	757.258909688361	557.561333596329	583.496922796502	734.878900768472	469.190132054747	586.905795574343	854.272525575421	759.189486658520	382.351652604033	794.538720652758	632.391411030097	310.769830378376	897.113744251970	572.643138526790	370.678823322501	916.661714410553	504.041006688928	371.149788326921	901.147376544014	430.873042274672	360.514167903449	831.008549451627	303.094824358627	310.422907662420	912.252070796331	202.042641804019	369.328563471066	690.577019571802	388.761825512634	595.018263495909	602.047353901246	300.748920035500	658.710204442043	622.683252795944	199.618768975032	595.887490608437	462.707326915776	47.480410262958	567.607454903869	635.381293627816	96.616672278902	604.354840510226	545.120516280480	37.694387721572	642.914872636170	753.733062067995	39.037285033517	635.400247386476	812.862857588199	36.924524947802	407.191850947683	887.838065723809	34.921461172156	327.360256204507	968.550528603778	99.004545786354	352.940973499877	1098.230100542803	51.074795361777	327.553941613087	619.434495802868	1094.907447813037	227.932169282648	626.071737186804	834.289847110248	204.747316216109	895.305952244806	1095.873188982961	779.540646487342	1127.278690384524	1138.600423676082	690.645242411505	
